<svg width="151.396" height="26.732" xmlns="http://www.w3.org/2000/svg">
 <g>
  <title>Layer 1</title>
  <g id="svg_1">
   <g id="svg_2">
    <path fill="#000000" d="m145.095001,12.631h-11.100998c0.134003,-1.389999 1.119995,-2.782 2.888992,-2.782c1.475006,0 13.093002,0 13.093002,0v-3.074h-13.690994c-5.452011,0 -7.69101,4.547 -7.69101,8.529c0,0 14.754013,0 15.275009,0c0.51799,0 1.741989,0.108 1.741989,1.363c0,1.253 -1.059998,1.363001 -2.888992,1.417h-15.928001v-11.309h-4.693001v11.309999h-8.945c-2.700996,0 -3.000999,-1.988998 -3.000999,-3.052999c0,-1.174 0,-8.256999 0,-8.256999h-8.535995l-6.955002,5.037l-6.274002,-5.037h-18.302002c-5.455994,0 -8.728996,4.189 -9.192997,7.492h3.771c-1.507999,1.016 -2.574001,2.396 -3.153999,3.812l-10.652,0.005999c-2.702,0 -3.000999,-1.988998 -3.000999,-3.052999c0,-1.174 0,-8.256999 0,-8.256999h-4.690002v7.848c0,5.127 3.600002,6.136001 5.345001,6.136001c2.536999,0 37.503998,0 37.503998,0l7.008003,-4.691l6.357002,4.691h7.390999l-9.846001,-7.255001l8.101997,-5.829v7.573999c0,4.635001 4.527,5.510001 5.780998,5.510001h34.230003c1.690002,0 6.354996,-0.218 6.354996,-3.928001s-3.438004,-4.2 -6.300995,-4.2l0,0zm-59.842003,5.454h-17.647995c0.136993,-1.389999 1.664993,-2.779999 3.436996,-2.779999h10.419998v-2.674001h-14.237999c0.136002,-1.389999 1.664001,-2.782 3.437004,-2.782c1.472,0 11.892998,0 11.892998,0v-1.953l8.236,6.509l-5.537003,3.679999l0,0zm-57.842999,-16.650999l-0.902,1.35c4.847,1.786 8.053001,5.403 8.053001,10.584c0,0.897 -0.132999,1.776 -0.380001,2.62c-0.217999,0.73 -0.641998,1.349999 -1.443001,1.349999h-15.609999c-1.999001,0 -1.226,-2.063 -0.486,-3.061999c1.073999,-1.926 6.957001,-9.942 8.372,-11.437c0.360001,-0.55 1.372,-1.68 -0.021999,-2.116c-1.992001,-0.475 -4.143,-0.723 -6.386,-0.723c-10.275001,0 -18.599001,5.278 -18.606001,13.367c-0.005,8.165 8.331,13.365001 18.606001,13.365001c6.158998,0 11.622,-2.151001 15.007998,-5.465l-3.048998,0.014999c-2.886,2.426001 -7.104,3.954 -11.884001,3.954c-8.915999,0 -15.878,-5.313999 -15.878,-11.869c0,-7.561 6.962,-11.869 15.878,-11.869c0.566999,0.001 1.021,0.264 0.682001,0.757c-1.854,2.229 -7.128001,9.406 -8.090001,10.960999c-1.898,3.066 -1.853,6.843 2.797,7.106001h19.556999c0.999001,0 1.252003,-0.468 1.613003,-0.957001c1.309998,-1.771 1.973999,-3.84 1.973,-5.998c-0.005001,-5.635 -3.971001,-9.857 -9.803001,-11.933z" id="svg_3"/>
   </g>
  </g>
 </g>
</svg>